<svg width="16" height="16" viewBox="0 0 16 16" fill="none" xmlns="http://www.w3.org/2000/svg">
<path fill-rule="evenodd" clip-rule="evenodd" d="M2.5 6.35501C2.54115 3.35796 5.00292 0.961088 8 1.00001C10.9971 0.961088 13.4589 3.35796 13.5 6.35501C13.4987 7.5188 13.1119 8.64937 12.4 9.57001L8 16L3.6 9.57001C2.88809 8.64937 2.50126 7.5188 2.5 6.35501ZM12.5 6.35501C12.4535 3.91259 10.4426 1.96655 8 2.00001C5.55737 1.96655 3.54654 3.91259 3.5 6.35501C3.49927 7.31609 3.82547 8.24884 4.425 9.00001L8 14.23L11.605 8.96001C12.1853 8.21566 12.5003 7.29881 12.5 6.35501ZM8 5.00001C8.82843 5.00001 9.5 5.67158 9.5 6.50001C9.5 7.32844 8.82843 8.00001 8 8.00001C7.17157 8.00001 6.5 7.32844 6.5 6.50001C6.5 5.67158 7.17157 5.00001 8 5.00001ZM5.5 6.50001C5.5 5.1193 6.61929 4.00001 8 4.00001C9.38071 4.00001 10.5 5.1193 10.5 6.50001C10.5 7.88072 9.38071 9.00001 8 9.00001C6.61929 9.00001 5.5 7.88072 5.5 6.50001Z" fill="#8D8E90"/>
</svg>
