<svg width="24" height="24" viewBox="0 0 24 24" fill="none" xmlns="http://www.w3.org/2000/svg">
<path fill-rule="evenodd" clip-rule="evenodd" d="M13.1596 0.000976562C15.3827 0.00464321 15.8375 0.0217673 16.9468 0.0723801C18.224 0.130637 19.0964 0.33351 19.8596 0.630175C20.6488 0.936796 21.318 1.34712 21.9851 2.01423C22.6522 2.68139 23.0626 3.3506 23.3692 4.13971C23.6658 4.903 23.8687 5.77532 23.927 7.05258C23.9854 8.33251 23.9992 8.74116 23.9992 12.0002C23.9992 15.2592 23.9854 15.6678 23.927 16.9478C23.8687 18.225 23.6658 19.0973 23.3692 19.8606C23.0626 20.6497 22.6522 21.3189 21.9851 21.9861C21.318 22.6532 20.6488 23.0635 19.8596 23.3702C19.0964 23.6668 18.224 23.8697 16.9468 23.928C15.6668 23.9864 15.2582 24.0002 11.9992 24.0002C8.74019 24.0002 8.33153 23.9864 7.05161 23.928C5.77435 23.8697 4.90202 23.6668 4.13873 23.3702C3.34963 23.0635 2.68042 22.6532 2.01325 21.9861C1.34614 21.3189 0.935819 20.6497 0.629199 19.8606C0.332534 19.0973 0.12966 18.225 0.0714036 16.9478C0.0207908 15.8385 0.00366665 15.3836 0 13.1606V10.8398C0.00366665 8.6167 0.0207908 8.16185 0.0714036 7.05258C0.12966 5.77532 0.332534 4.903 0.629199 4.13971C0.935819 3.3506 1.34614 2.68139 2.01325 2.01423C2.68042 1.34712 3.34963 0.936796 4.13873 0.630175C4.90202 0.33351 5.77435 0.130637 7.05161 0.0723801C8.16088 0.0217673 8.61572 0.00464321 10.8388 0.000976562H13.1596ZM11.9992 5.83801C15.4025 5.83801 18.1613 8.59688 18.1613 12.0002C18.1613 15.4035 15.4025 18.1623 11.9992 18.1623C8.5959 18.1623 5.83703 15.4035 5.83703 12.0002C5.83703 8.59688 8.5959 5.83801 11.9992 5.83801ZM11.9992 8.00017C9.79004 8.00017 7.99919 9.79102 7.99919 12.0002C7.99919 14.2093 9.79004 16.0002 11.9992 16.0002C14.2083 16.0002 15.9992 14.2093 15.9992 12.0002C15.9992 9.79102 14.2083 8.00017 11.9992 8.00017ZM18.4048 4.15453C19.2001 4.15453 19.8448 4.79925 19.8448 5.59455C19.8448 6.38985 19.2001 7.03453 18.4048 7.03453C17.6096 7.03453 16.9648 6.38985 16.9648 5.59455C16.9648 4.79925 17.6096 4.15453 18.4048 4.15453Z" fill="white"/>
</svg>
