<svg width="24" height="24" viewBox="0 0 24 24" fill="none" xmlns="http://www.w3.org/2000/svg">
<path fill-rule="evenodd" clip-rule="evenodd" d="M22.4998 12C22.5104 7.24491 19.3309 3.07355 14.7431 1.82345C10.1553 0.573349 5.29923 2.55516 2.89611 6.65829C0.492999 10.7614 1.14003 15.9663 4.47461 19.3562C7.8092 22.746 13.0027 23.4786 17.1448 21.1432L17.2326 21.1627L17.2506 21.0795C20.495 19.2063 22.4954 15.7463 22.4998 12ZM2.99982 12C3.00273 11.2404 3.10228 10.4844 3.29607 9.74997H6.47832L10.2223 12.87L8.78982 14.7795C8.34503 15.3775 8.40433 16.2109 8.92932 16.74L10.4998 18.3105V20.8642C6.17482 20.13 3.00771 16.3868 2.99982 12ZM9.98982 15.6795L12.2773 12.63L7.02132 8.24997H3.82932C4.9371 5.81993 7.06991 4.00975 9.6477 3.31172C12.2255 2.6137 14.9803 3.1004 17.1628 4.63947L16.7091 5.99997H12.4393L10.1571 8.28222L17.1726 14.517L15.9358 20.0812C14.7113 20.6844 13.3648 20.9987 11.9998 21V17.6895L9.98982 15.6795ZM17.7261 18.9375L18.6358 14.8425C18.7535 14.3116 18.5747 13.7587 18.1686 13.3972L12.3426 8.21772L13.0603 7.49997H16.7091C17.3551 7.50059 17.9289 7.08707 18.1326 6.47397L18.3973 5.67897C20.1754 7.47337 21.1158 9.93347 20.988 12.4564C20.8603 14.9793 19.6763 17.3318 17.7261 18.9375V18.9375Z" fill="#7F8288"/>
</svg>
