<svg width="26" height="27" viewBox="0 0 26 27" fill="none" xmlns="http://www.w3.org/2000/svg">
<path fill-rule="evenodd" clip-rule="evenodd" d="M10.8529 11.3288C11.6634 10.5756 11.6634 9.35445 10.8529 8.60127C9.70496 7.5345 9.5146 5.42723 10.8529 4.18248C11.6634 3.42984 11.6634 2.20814 10.8529 1.45549C10.043 0.702335 8.72835 0.702335 7.91845 1.45549C7.10797 2.20814 7.10797 3.42984 7.91845 4.18248C9.25675 5.42669 9.06638 7.5345 7.91845 8.60127C6.60726 9.81976 4.65693 9.63695 3.54303 8.60127C2.73255 7.84865 1.4179 7.84865 0.607424 8.60127C-0.202475 9.35445 -0.202475 10.5756 0.607424 11.3288C1.4179 12.082 2.73255 12.082 3.54303 11.3288C4.65693 10.2936 6.60726 10.1103 7.91845 11.3288C8.72835 12.082 10.043 12.082 10.8529 11.3288ZM14.6917 11.3288C13.8818 10.5756 13.8818 9.35445 14.6917 8.60127C15.8402 7.5345 16.0306 5.42723 14.6917 4.18248C13.8818 3.42984 13.8818 2.20814 14.6917 1.45549C15.5022 0.702335 16.8168 0.702335 17.6267 1.45549C18.4372 2.20814 18.4372 3.42984 17.6267 4.18248C16.2884 5.42669 16.4788 7.5345 17.6267 8.60127C18.9379 9.81976 20.8883 9.63695 22.0027 8.60127C22.8126 7.84865 24.1273 7.84865 24.9372 8.60127C25.7477 9.35445 25.7477 10.5756 24.9372 11.3288C24.1273 12.082 22.8126 12.082 22.0027 11.3288C20.8883 10.2936 18.9379 10.1103 17.6267 11.3288C16.8168 12.082 15.5022 12.082 14.6917 11.3288ZM7.59447 6.42434C7.59447 5.35844 6.66692 4.49397 5.52325 4.49397C4.37959 4.49397 3.45203 5.35844 3.45203 6.42434C3.45203 7.4902 4.37959 8.35468 5.52325 8.35468C6.66692 8.35468 7.59447 7.4902 7.59447 6.42434ZM21.9549 6.42434C21.9549 5.35844 21.0274 4.49397 19.8837 4.49397C18.7401 4.49397 17.8125 5.35844 17.8125 6.42434C17.8125 7.4902 18.7401 8.35468 19.8837 8.35468C21.0274 8.35468 21.9549 7.4902 21.9549 6.42434ZM10.8529 18.725C11.6634 17.9719 11.6634 16.7502 10.8529 15.9975C10.043 15.2444 8.72835 15.2444 7.91845 15.9975C6.60726 17.2155 4.65693 17.0327 3.54303 15.9975C2.73255 15.2444 1.4179 15.2444 0.607424 15.9975C-0.202475 16.7502 -0.202475 17.9719 0.607424 18.725C1.4179 19.4777 2.73255 19.4777 3.54303 18.725C4.65693 17.6894 6.60726 17.5065 7.91845 18.725C9.06638 19.7918 9.25675 21.8996 7.91845 23.1438C7.10797 23.8965 7.10797 25.1182 7.91845 25.8708C8.72835 26.624 10.043 26.624 10.8529 25.8708C11.6634 25.1182 11.6634 23.8965 10.8529 23.1438C9.5146 21.8991 9.70496 19.7918 10.8529 18.725ZM14.6917 18.725C13.8818 17.9719 13.8818 16.7502 14.6917 15.9975C15.5022 15.2444 16.8168 15.2444 17.6267 15.9975C18.9379 17.2155 20.8883 17.0327 22.0027 15.9975C22.8126 15.2444 24.1273 15.2444 24.9372 15.9975C25.7477 16.7502 25.7477 17.9719 24.9372 18.725C24.1273 19.4777 22.8126 19.4777 22.0027 18.725C20.8883 17.6894 18.9379 17.5065 17.6267 18.725C16.4788 19.7918 16.2884 21.8996 17.6267 23.1438C18.4372 23.8965 18.4372 25.1182 17.6267 25.8708C16.8168 26.624 15.5022 26.624 14.6917 25.8708C13.8818 25.1182 13.8818 23.8965 14.6917 23.1438C16.0306 21.8991 15.8402 19.7918 14.6917 18.725ZM5.52325 18.9716C6.66692 18.9716 7.59447 19.8357 7.59447 20.9017C7.59447 21.9677 6.66692 22.8323 5.52325 22.8323C4.37959 22.8323 3.45203 21.9677 3.45203 20.9017C3.45203 19.8357 4.37959 18.9716 5.52325 18.9716ZM21.9549 20.9017C21.9549 19.8357 21.0274 18.9716 19.8837 18.9716C18.7401 18.9716 17.8125 19.8357 17.8125 20.9017C17.8125 21.9677 18.7401 22.8323 19.8837 22.8323C21.0274 22.8323 21.9549 21.9677 21.9549 20.9017Z" fill="#19E6C8"/>
</svg>
