<svg width="12" height="12" viewBox="0 0 12 12" fill="none" xmlns="http://www.w3.org/2000/svg">
<path d="M11.471 9.72234L11.4715 9.7239C11.5056 9.82595 11.5131 9.98374 11.472 10.1583C11.4308 10.3329 11.3538 10.4699 11.2789 10.5447L11.2786 10.545L10.437 11.3871C10.4309 11.3908 10.4207 11.3965 10.4057 11.4036C10.3688 11.4212 10.3205 11.4397 10.2668 11.4571C10.2143 11.4741 10.1644 11.4876 10.1273 11.4967C10.1226 11.4979 10.1181 11.499 10.114 11.4999C7.56264 11.5089 5.10987 10.5013 3.30395 8.69522L3.3038 8.69508C1.49513 6.88773 0.487105 4.42796 0.500125 1.8721C0.500548 1.87049 0.500984 1.86884 0.50143 1.86716C0.510832 1.83172 0.524528 1.78392 0.541642 1.73355C0.559174 1.68194 0.577686 1.63539 0.595379 1.59951C0.603022 1.58402 0.608968 1.57368 0.612735 1.56769L1.457 0.72215C1.45706 0.72209 1.45712 0.72203 1.45718 0.721969C1.53321 0.646118 1.67065 0.569155 1.84478 0.528074C2.01878 0.487025 2.17618 0.494361 2.27846 0.528297C2.2786 0.528345 2.27875 0.528393 2.27889 0.528441L2.45769 0.588446L2.45809 0.588581C2.57034 0.626145 2.71837 0.721631 2.85517 0.866148C2.99202 1.01071 3.07883 1.16335 3.10975 1.2771L3.10982 1.27736L3.53943 2.85435C3.53945 2.85443 3.53947 2.85451 3.53949 2.85459C3.56925 2.96469 3.56982 3.13282 3.5222 3.31578C3.47445 3.49926 3.39269 3.64238 3.31513 3.71995L2.74449 4.29064L2.53991 4.49525L2.61537 4.77458C3.22194 7.01982 4.98227 8.7803 7.22763 9.38735L7.50704 9.46289L7.7117 9.25821L8.28233 8.68752L8.28256 8.68729C8.35978 8.60996 8.50268 8.52823 8.68615 8.48052C8.86897 8.43298 9.03693 8.43361 9.14685 8.46337C9.147 8.46341 9.14715 8.46345 9.14731 8.4635L10.7235 8.89399L10.7244 8.89424C10.8371 8.92478 10.9892 9.01109 11.1339 9.14791C11.2778 9.28402 11.3738 9.43182 11.4124 9.54508C11.4126 9.54553 11.4127 9.54598 11.4129 9.54642L11.471 9.72234ZM10.1662 11.4996L10.162 11.4997L10.1662 11.4996ZM0.602681 1.57775L0.604003 1.57643C0.603577 1.57686 0.603131 1.5773 0.602681 1.57775Z" stroke="#8D8E90"/>
</svg>
