<svg width="24" height="24" viewBox="0 0 24 24" fill="none" xmlns="http://www.w3.org/2000/svg">
<path d="M12 24C18.6274 24 24 18.6274 24 12C24 5.37258 18.6274 0 12 0C5.37258 0 0 5.37258 0 12C0 18.6274 5.37258 24 12 24Z" fill="white"/>
<path fill-rule="evenodd" clip-rule="evenodd" d="M8.8002 17.5C8.41144 17.5 8.4775 17.3532 8.34342 16.983L7.2002 13.2206L16.0002 8" fill="#454545"/>
<path fill-rule="evenodd" clip-rule="evenodd" d="M9.33722 14.4417L14.1732 18.0146C14.7251 18.3191 15.1234 18.1615 15.2608 17.5023L17.2293 8.22597C17.4309 7.41795 16.9213 7.05147 16.3934 7.29115L4.83438 11.7483C4.04537 12.0647 4.04997 12.5049 4.69056 12.7011L7.65686 13.6269L14.5242 9.29438C14.8484 9.09779 15.1459 9.20349 14.9017 9.42022" fill="#313338"/>
</svg>
